<?xml version="1.0" standalone="no"?>
<!DOCTYPE svg PUBLIC "-//W3C//DTD SVG 20010904//EN"
 "http://www.w3.org/TR/2001/REC-SVG-20010904/DTD/svg10.dtd">
<svg version="1.0" xmlns="http://www.w3.org/2000/svg"
 width="1280.000000pt" height="1028.000000pt" viewBox="0 0 1280.000000 1028.000000"
 preserveAspectRatio="xMidYMid meet">
<metadata>
Created by potrace 1.15, written by Peter Selinger 2001-2017
</metadata>
<g transform="translate(0.000000,1028.000000) scale(0.100000,-0.100000)"
fill="#000000" stroke="none">
<path d="M5315 10270 c-332 -24 -608 -74 -940 -167 -171 -49 -266 -91 -352
-156 -143 -107 -265 -321 -308 -539 -15 -72 -21 -89 -39 -94 -11 -4 -93 -41
-181 -83 -827 -397 -1547 -1065 -2145 -1991 -199 -308 -477 -830 -645 -1210
-338 -768 -565 -1526 -654 -2180 -36 -266 -46 -420 -46 -715 1 -384 27 -617
106 -961 24 -104 42 -155 87 -245 350 -693 1067 -1177 2292 -1548 628 -190
1244 -305 1945 -363 200 -16 904 -16 1100 0 753 65 1379 205 1978 443 314 125
656 323 942 544 l80 62 70 -24 c233 -80 440 -71 645 29 98 48 113 60 230 177
198 199 447 509 631 786 474 714 743 1438 845 2275 22 180 30 691 15 887 -46
581 -174 1108 -403 1657 -39 94 -47 121 -36 128 85 56 476 258 580 299 94 37
178 51 303 50 213 -1 355 -36 724 -181 277 -109 359 -124 436 -82 179 97 278
670 190 1096 -44 211 -148 422 -266 537 -413 403 -1760 120 -2562 -540 l-78
-64 -16 23 c-108 154 -337 413 -549 620 -424 415 -866 727 -1399 990 -595 293
-1160 458 -1800 526 -171 18 -616 26 -780 14z"/>
</g>
</svg>
